<mxfile host="Electron" modified="2024-05-22T13:16:12.216Z" agent="Mozilla/5.0 (X11; Linux x86_64) AppleWebKit/537.36 (KHTML, like Gecko) draw.io/24.4.0 Chrome/120.0.6099.109 Electron/28.1.0 Safari/537.36" etag="IPdCexW04QjoLoOJ4l82" version="24.4.0" type="device">
  <diagram name="Page-1" id="Ah4eXIzguyVDU7Cm7RUX">
    <mxGraphModel dx="1137" dy="703" grid="1" gridSize="10" guides="1" tooltips="1" connect="1" arrows="1" fold="1" page="1" pageScale="1" pageWidth="827" pageHeight="583" math="0" shadow="0">
      <root>
        <mxCell id="0" />
        <mxCell id="1" parent="0" />
        <mxCell id="w4NatyeVdwPAlOfVwhTA-1" value="Joint controller structure" style="text;html=1;align=center;verticalAlign=middle;resizable=0;points=[];autosize=1;strokeColor=none;fillColor=none;fontSize=18;" vertex="1" parent="1">
          <mxGeometry x="10" y="10" width="220" height="40" as="geometry" />
        </mxCell>
        <mxCell id="w4NatyeVdwPAlOfVwhTA-3" value="Main loop" style="swimlane;whiteSpace=wrap;html=1;" vertex="1" parent="1">
          <mxGeometry x="390" y="100" width="150" height="220" as="geometry" />
        </mxCell>
        <mxCell id="w4NatyeVdwPAlOfVwhTA-2" value="update controller" style="rounded=1;whiteSpace=wrap;html=1;fontSize=16;fillColor=#dae8fc;strokeColor=#6c8ebf;" vertex="1" parent="w4NatyeVdwPAlOfVwhTA-3">
          <mxGeometry x="15" y="40" width="120" height="60" as="geometry" />
        </mxCell>
        <mxCell id="w4NatyeVdwPAlOfVwhTA-16" value="request accelerometer data" style="rounded=1;whiteSpace=wrap;html=1;fontSize=16;fillColor=#dae8fc;strokeColor=#6c8ebf;" vertex="1" parent="w4NatyeVdwPAlOfVwhTA-3">
          <mxGeometry x="15" y="141.5" width="120" height="60" as="geometry" />
        </mxCell>
        <mxCell id="w4NatyeVdwPAlOfVwhTA-10" style="edgeStyle=orthogonalEdgeStyle;rounded=0;orthogonalLoop=1;jettySize=auto;html=1;entryX=0;entryY=0.5;entryDx=0;entryDy=0;dashed=1;" edge="1" parent="1" source="w4NatyeVdwPAlOfVwhTA-4" target="w4NatyeVdwPAlOfVwhTA-6">
          <mxGeometry relative="1" as="geometry" />
        </mxCell>
        <mxCell id="w4NatyeVdwPAlOfVwhTA-4" value="joint ctrl descriptor" style="rounded=1;whiteSpace=wrap;html=1;fontSize=16;fillColor=#fff2cc;strokeColor=#d6b656;" vertex="1" parent="1">
          <mxGeometry x="30" y="120" width="120" height="60" as="geometry" />
        </mxCell>
        <mxCell id="w4NatyeVdwPAlOfVwhTA-35" style="edgeStyle=orthogonalEdgeStyle;rounded=0;orthogonalLoop=1;jettySize=auto;html=1;exitX=1;exitY=0.5;exitDx=0;exitDy=0;entryX=0;entryY=0.5;entryDx=0;entryDy=0;dashed=1;" edge="1" parent="1" source="w4NatyeVdwPAlOfVwhTA-5" target="w4NatyeVdwPAlOfVwhTA-12">
          <mxGeometry relative="1" as="geometry" />
        </mxCell>
        <mxCell id="w4NatyeVdwPAlOfVwhTA-5" value="accelerometer inData" style="rounded=1;whiteSpace=wrap;html=1;fontSize=16;fillColor=#fff2cc;strokeColor=#d6b656;" vertex="1" parent="1">
          <mxGeometry x="30" y="260" width="120" height="60" as="geometry" />
        </mxCell>
        <mxCell id="w4NatyeVdwPAlOfVwhTA-9" value="" style="group" vertex="1" connectable="0" parent="1">
          <mxGeometry x="200" y="120" width="140" height="80" as="geometry" />
        </mxCell>
        <mxCell id="w4NatyeVdwPAlOfVwhTA-6" value="" style="rounded=1;whiteSpace=wrap;html=1;fontSize=16;fillColor=#f8cecc;strokeColor=#b85450;" vertex="1" parent="w4NatyeVdwPAlOfVwhTA-9">
          <mxGeometry width="120" height="60" as="geometry" />
        </mxCell>
        <mxCell id="w4NatyeVdwPAlOfVwhTA-7" value="" style="rounded=1;whiteSpace=wrap;html=1;fontSize=16;fillColor=#f8cecc;strokeColor=#b85450;" vertex="1" parent="w4NatyeVdwPAlOfVwhTA-9">
          <mxGeometry x="10" y="10" width="120" height="60" as="geometry" />
        </mxCell>
        <mxCell id="w4NatyeVdwPAlOfVwhTA-8" value="joint controllers" style="rounded=1;whiteSpace=wrap;html=1;fontSize=16;fillColor=#f8cecc;strokeColor=#b85450;" vertex="1" parent="w4NatyeVdwPAlOfVwhTA-9">
          <mxGeometry x="20" y="20" width="120" height="60" as="geometry" />
        </mxCell>
        <mxCell id="w4NatyeVdwPAlOfVwhTA-11" value="" style="group" vertex="1" connectable="0" parent="1">
          <mxGeometry x="200" y="260" width="140" height="80" as="geometry" />
        </mxCell>
        <mxCell id="w4NatyeVdwPAlOfVwhTA-12" value="" style="rounded=1;whiteSpace=wrap;html=1;fontSize=16;fillColor=#f8cecc;strokeColor=#b85450;" vertex="1" parent="w4NatyeVdwPAlOfVwhTA-11">
          <mxGeometry width="120" height="60" as="geometry" />
        </mxCell>
        <mxCell id="w4NatyeVdwPAlOfVwhTA-13" value="" style="rounded=1;whiteSpace=wrap;html=1;fontSize=16;fillColor=#f8cecc;strokeColor=#b85450;" vertex="1" parent="w4NatyeVdwPAlOfVwhTA-11">
          <mxGeometry x="10" y="10" width="120" height="60" as="geometry" />
        </mxCell>
        <mxCell id="w4NatyeVdwPAlOfVwhTA-14" value="accelerometer data" style="rounded=1;whiteSpace=wrap;html=1;fontSize=16;fillColor=#f8cecc;strokeColor=#b85450;" vertex="1" parent="w4NatyeVdwPAlOfVwhTA-11">
          <mxGeometry x="20" y="20" width="120" height="60" as="geometry" />
        </mxCell>
        <mxCell id="w4NatyeVdwPAlOfVwhTA-18" style="edgeStyle=orthogonalEdgeStyle;rounded=0;orthogonalLoop=1;jettySize=auto;html=1;exitX=1;exitY=0.5;exitDx=0;exitDy=0;entryX=0;entryY=0.5;entryDx=0;entryDy=0;" edge="1" parent="1" source="w4NatyeVdwPAlOfVwhTA-8" target="w4NatyeVdwPAlOfVwhTA-2">
          <mxGeometry relative="1" as="geometry" />
        </mxCell>
        <mxCell id="w4NatyeVdwPAlOfVwhTA-19" style="edgeStyle=orthogonalEdgeStyle;rounded=0;orthogonalLoop=1;jettySize=auto;html=1;exitX=0.5;exitY=0;exitDx=0;exitDy=0;entryX=0;entryY=0.75;entryDx=0;entryDy=0;" edge="1" parent="1" source="w4NatyeVdwPAlOfVwhTA-12" target="w4NatyeVdwPAlOfVwhTA-2">
          <mxGeometry relative="1" as="geometry">
            <Array as="points">
              <mxPoint x="260" y="220" />
              <mxPoint x="370" y="220" />
              <mxPoint x="370" y="185" />
            </Array>
          </mxGeometry>
        </mxCell>
        <mxCell id="w4NatyeVdwPAlOfVwhTA-33" style="edgeStyle=orthogonalEdgeStyle;rounded=0;orthogonalLoop=1;jettySize=auto;html=1;exitX=1;exitY=0.5;exitDx=0;exitDy=0;entryX=0.5;entryY=0;entryDx=0;entryDy=0;" edge="1" parent="1" source="w4NatyeVdwPAlOfVwhTA-20" target="w4NatyeVdwPAlOfVwhTA-6">
          <mxGeometry relative="1" as="geometry">
            <Array as="points">
              <mxPoint x="741" y="220" />
              <mxPoint x="741" y="60" />
              <mxPoint x="260" y="60" />
            </Array>
          </mxGeometry>
        </mxCell>
        <mxCell id="w4NatyeVdwPAlOfVwhTA-20" value="update position" style="rounded=1;whiteSpace=wrap;html=1;fontSize=16;fillColor=#dae8fc;strokeColor=#6c8ebf;" vertex="1" parent="1">
          <mxGeometry x="601" y="190" width="120" height="60" as="geometry" />
        </mxCell>
        <mxCell id="w4NatyeVdwPAlOfVwhTA-21" value="update power" style="rounded=1;whiteSpace=wrap;html=1;fontSize=16;fillColor=#dae8fc;strokeColor=#6c8ebf;" vertex="1" parent="1">
          <mxGeometry x="601" y="272" width="120" height="60" as="geometry" />
        </mxCell>
        <mxCell id="w4NatyeVdwPAlOfVwhTA-27" style="edgeStyle=orthogonalEdgeStyle;rounded=0;orthogonalLoop=1;jettySize=auto;html=1;exitX=0;exitY=0.25;exitDx=0;exitDy=0;entryX=0.75;entryY=0;entryDx=0;entryDy=0;" edge="1" parent="1" source="w4NatyeVdwPAlOfVwhTA-22" target="w4NatyeVdwPAlOfVwhTA-6">
          <mxGeometry relative="1" as="geometry" />
        </mxCell>
        <mxCell id="w4NatyeVdwPAlOfVwhTA-22" value="update error" style="rounded=1;whiteSpace=wrap;html=1;fontSize=16;fillColor=#dae8fc;strokeColor=#6c8ebf;" vertex="1" parent="1">
          <mxGeometry x="601" y="70" width="120" height="60" as="geometry" />
        </mxCell>
        <mxCell id="w4NatyeVdwPAlOfVwhTA-24" style="edgeStyle=orthogonalEdgeStyle;rounded=0;orthogonalLoop=1;jettySize=auto;html=1;exitX=1;exitY=0.75;exitDx=0;exitDy=0;entryX=0;entryY=0.5;entryDx=0;entryDy=0;" edge="1" parent="1" source="w4NatyeVdwPAlOfVwhTA-2" target="w4NatyeVdwPAlOfVwhTA-21">
          <mxGeometry relative="1" as="geometry">
            <Array as="points">
              <mxPoint x="560" y="185" />
              <mxPoint x="560" y="302" />
            </Array>
          </mxGeometry>
        </mxCell>
        <mxCell id="w4NatyeVdwPAlOfVwhTA-25" style="edgeStyle=orthogonalEdgeStyle;rounded=0;orthogonalLoop=1;jettySize=auto;html=1;exitX=1;exitY=0.5;exitDx=0;exitDy=0;entryX=0;entryY=0.5;entryDx=0;entryDy=0;" edge="1" parent="1" source="w4NatyeVdwPAlOfVwhTA-2" target="w4NatyeVdwPAlOfVwhTA-20">
          <mxGeometry relative="1" as="geometry">
            <Array as="points">
              <mxPoint x="570" y="170" />
              <mxPoint x="570" y="220" />
            </Array>
          </mxGeometry>
        </mxCell>
        <mxCell id="w4NatyeVdwPAlOfVwhTA-26" style="edgeStyle=orthogonalEdgeStyle;rounded=0;orthogonalLoop=1;jettySize=auto;html=1;exitX=1;exitY=0.25;exitDx=0;exitDy=0;entryX=0;entryY=0.5;entryDx=0;entryDy=0;" edge="1" parent="1" source="w4NatyeVdwPAlOfVwhTA-2" target="w4NatyeVdwPAlOfVwhTA-22">
          <mxGeometry relative="1" as="geometry">
            <Array as="points">
              <mxPoint x="570" y="155" />
              <mxPoint x="570" y="100" />
            </Array>
          </mxGeometry>
        </mxCell>
        <mxCell id="w4NatyeVdwPAlOfVwhTA-30" style="edgeStyle=orthogonalEdgeStyle;rounded=0;orthogonalLoop=1;jettySize=auto;html=1;exitX=0;exitY=0.5;exitDx=0;exitDy=0;entryX=0.5;entryY=1;entryDx=0;entryDy=0;" edge="1" parent="1" source="w4NatyeVdwPAlOfVwhTA-29" target="w4NatyeVdwPAlOfVwhTA-14">
          <mxGeometry relative="1" as="geometry" />
        </mxCell>
        <mxCell id="w4NatyeVdwPAlOfVwhTA-29" value="accelerometer data&lt;div&gt;[CAN]&lt;/div&gt;" style="rounded=1;whiteSpace=wrap;html=1;fontSize=16;fillColor=#dae8fc;strokeColor=#6c8ebf;" vertex="1" parent="1">
          <mxGeometry x="405" y="340" width="120" height="60" as="geometry" />
        </mxCell>
        <mxCell id="w4NatyeVdwPAlOfVwhTA-31" style="edgeStyle=orthogonalEdgeStyle;rounded=0;orthogonalLoop=1;jettySize=auto;html=1;exitX=0.5;exitY=1;exitDx=0;exitDy=0;dashed=1;" edge="1" parent="1" source="w4NatyeVdwPAlOfVwhTA-16" target="w4NatyeVdwPAlOfVwhTA-29">
          <mxGeometry relative="1" as="geometry" />
        </mxCell>
      </root>
    </mxGraphModel>
  </diagram>
</mxfile>
